<svg width="1052" height="538" viewBox="0 0 1052 538" fill="none" xmlns="http://www.w3.org/2000/svg">
<g clip-path="url(#clip0_6_9271)">
<path d="M1005.3 297.436L1002.01 323.691L993.831 388.901H829.524C830.807 374.285 832.561 353.248 834.435 330.538C834.62 328.269 834.813 325.987 834.998 323.691C839.697 266.603 844.838 202.002 844.838 202.002L866.44 206.028L908.349 213.825L925.427 217L971.159 225.52C993.96 229.759 1009.64 262.79 1005.3 297.436Z" fill="#F2F2F2"/>
<path d="M881.022 96.3608L901.227 131.737L862.392 159.273L845.826 115.789L881.022 96.3608Z" fill="#FFB6B6"/>
<path d="M855.299 129.828C882.944 129.828 905.354 107.406 905.354 79.7472C905.354 52.0882 882.944 29.6661 855.299 29.6661C827.654 29.6661 805.243 52.0882 805.243 79.7472C805.243 107.406 827.654 129.828 855.299 129.828Z" fill="#FFB6B6"/>
<path d="M851.705 90.9432C847.73 84.891 849.29 81.7256 845.963 79.5014C845.962 79.5013 844.624 78.6064 835.04 78.0961C832.895 62.646 830.217 60.7724 830.216 60.7723C827.13 58.6129 822.549 59.3145 819.699 60.6353C813.671 63.4285 814.37 69.4623 810.311 70.6169C804.705 72.2119 794.505 63.2202 793.5 52.9264C792.68 44.5296 798.087 36.3743 800.232 36.8057C802.358 37.2335 807.449 30.7308 810.198 30.8311C812.075 30.8996 819.746 27.5641 821.809 27.8248C824.062 28.1097 831.492 31.9889 831.802 31.1026C833.953 24.9438 833.321 23.235 835.146 21.4731C838.381 18.3511 843.673 20.5252 851.975 21.6924C869.056 24.0939 872.037 18.4589 880.791 22.2783C885.213 24.2078 888.913 29.4112 896.133 39.7392C906.229 54.1828 911.278 61.4046 911.31 69.8278C911.343 78.418 907.186 77.8727 905.359 90.5898C903.327 104.746 907.646 111.219 902.927 115.818C899.28 119.372 891.867 120.216 887.973 117.097C881.304 111.756 890.031 98.8678 882.652 89.4519C878.122 83.6721 869.013 81.1003 864.84 83.9574C860.122 87.1878 862.721 96.6698 859.403 97.569C856.562 98.339 852.397 91.9978 851.705 90.9432Z" fill="#2F2E41"/>
<path d="M968.307 288.19C966.911 312.074 961.365 319.615 959.423 347.822C958.998 354.015 958.744 361.203 958.744 369.776C958.744 371.962 958.756 374.075 958.756 376.139C958.756 380.534 958.671 384.688 958.161 388.901C957.773 392.264 957.106 395.652 956.001 399.222H848.193C848.181 399.198 848.181 399.173 848.168 399.149C847.537 396.405 847.137 393.782 846.833 391.269C846.736 390.467 846.651 389.678 846.579 388.901C846.481 387.99 846.396 387.092 846.312 386.205C845.984 382.672 845.657 379.332 844.879 376.139C843.836 371.731 841.942 367.578 838.058 363.571C836.469 361.932 834.88 360.657 833.326 359.54C833.022 359.333 832.731 359.127 832.427 358.921C828.131 355.97 824.066 353.845 820.546 347.822C820.485 347.737 820.437 347.64 820.388 347.555C819.781 346.499 818.204 343.73 817.062 340.039C815.861 336.202 815.133 331.381 816.444 326.452C819.563 314.77 831.117 313.605 840.559 301.802C841.578 300.527 842.586 299.118 843.545 297.552C847.816 290.606 848.969 284.487 850.329 277.213C850.547 276.035 850.741 274.869 850.899 273.74C851.021 272.89 851.13 272.052 851.215 271.226C851.967 264.293 851.603 258.319 850.717 252.976C847.829 235.479 839.309 224.648 845.328 208.947C847.222 204.018 849.904 200.314 852.61 197.145C858.338 190.429 864.225 186.07 863.206 177.401C862.174 168.658 855.547 167.456 854.808 159.818C854.431 155.957 855.693 151.889 858.06 147.894V147.882C865.633 135.023 884.542 123.184 896.556 123.56C898.777 123.621 900.744 124.119 902.381 125.078C908.317 128.575 905.841 136.213 914.932 146.923C921.691 154.876 929.336 158.058 932.238 159.563C943.731 165.562 953.076 183.254 959.423 205.875C959.471 206.045 959.52 206.215 959.569 206.397C963.489 220.568 966.257 236.657 967.628 252.976C968.21 259.885 968.55 266.831 968.622 273.704C968.684 279.192 968.562 283.952 968.307 288.19Z" fill="#D1D4C9"/>
<path d="M887.576 370.019L885.379 376.139L883.995 379.976L880.791 388.901L877.077 399.222H853.205L857.21 388.901L859.067 384.092L862.15 376.139L867.32 362.782L887.576 370.019Z" fill="#FFB6B6"/>
<path d="M959.8 203.786C959.739 204.576 959.654 205.45 959.569 206.397C958.623 216.039 956.389 233.293 953.125 252.976C951.401 263.358 949.387 274.42 947.117 285.409C942.239 309.123 936.17 332.474 929.313 347.822C928.087 350.591 926.825 353.092 925.538 355.302C924.555 356.99 923.523 358.653 922.443 360.293C918.948 365.672 915.028 370.772 910.962 375.532C910.805 375.738 910.622 375.933 910.441 376.139C909.785 376.916 909.105 377.681 908.426 378.446C905.1 382.198 901.702 385.695 898.413 388.901C894.409 392.811 890.548 396.272 887.09 399.222H848.326L848.168 399.149L842.586 396.672C842.586 396.672 844.175 394.802 846.834 391.269C847.38 390.552 847.962 389.763 848.594 388.901C849.37 387.844 850.208 386.678 851.105 385.416C852.974 382.769 855.098 379.66 857.379 376.139C861.798 369.327 866.834 360.948 871.919 351.247C872.503 350.117 873.096 348.976 873.691 347.822C873.703 347.786 873.728 347.749 873.74 347.713C874.747 345.746 875.743 343.718 876.737 341.654C885.172 324.095 887.588 309.524 888.28 304.801C889.251 298.123 890.597 288.785 890.233 278.512C889.99 271.737 889.008 264.572 886.666 257.457V257.445C886.18 255.951 885.633 254.458 885.015 252.976C883.91 250.317 882.599 247.694 881.046 245.108C874.189 233.718 868.619 233.245 864.188 220.835C862.878 217.156 859.904 208.85 860.814 200.083V200.071C860.924 198.99 861.106 197.898 861.349 196.804V196.792C861.409 196.489 861.494 196.173 861.58 195.87C862.271 193.186 863.412 190.527 865.147 188.001C868.533 183.096 873.157 180.181 877.296 178.445L877.309 178.433C882.09 176.442 886.217 176.017 887.018 175.944C904.748 174.365 918.499 189.276 926.012 197.424C928.912 200.569 931.571 203.204 933.998 205.353C952.894 222.231 958.076 211.448 959.423 205.875C959.629 205.013 959.739 204.272 959.8 203.786Z" fill="#D1D4C9"/>
<path d="M959.86 203.156C959.86 203.216 959.848 203.422 959.8 203.763C959.823 203.58 959.836 203.398 959.848 203.228C959.848 203.192 959.848 203.167 959.86 203.156Z" fill="#D1D4C9"/>
<path d="M863.473 459.376H212.898C206.854 459.376 201.927 464.294 201.927 470.342C201.927 476.4 206.854 481.318 212.898 481.318H863.473C869.516 481.318 874.432 476.4 874.432 470.342C874.432 464.294 869.516 459.376 863.473 459.376Z" fill="#E6E6E6"/>
<path d="M719.097 516.059H357.261C351.217 516.059 346.302 520.976 346.302 527.023C346.302 533.07 351.217 538 357.261 538H719.097C725.141 538 730.069 533.07 730.069 527.023C730.069 520.976 725.141 516.059 719.097 516.059Z" fill="#E6E6E6"/>
<path d="M285.291 98.6888L326.292 81.4248L343.879 117.495L300.792 135.09L285.291 98.6888Z" fill="#FFB6B6"/>
<path opacity="0.1" d="M285.291 98.6888L326.292 81.4248L343.879 117.495L300.792 135.09L285.291 98.6888Z" fill="black"/>
<path d="M291.12 84.9438L331.568 131.571C331.568 131.571 303.43 220.427 275.292 228.345C247.154 236.263 195.274 274.972 195.274 274.972L130.205 232.744L161.861 186.116C161.861 186.116 238.361 81.4248 258.585 81.4248C278.809 81.4248 291.12 84.9438 291.12 84.9438Z" fill="#D1D4C9"/>
<path d="M236.47 388.901H142.313L136.36 380.939L112.056 348.432L106.464 340.954C106.464 340.954 85.3601 302.245 89.7567 267.054C94.1533 231.864 139.878 223.946 139.878 223.946H141.759L197.736 273.16L194.395 318.96L212.122 348.432L236.47 388.901Z" fill="#2F2E41"/>
<path d="M161.597 388.901H136.36V351.511L161.597 388.901Z" fill="#2F2E41"/>
<path d="M705.91 332.139L702.771 348.432L694.98 388.901H538.471C539.693 379.831 541.364 366.775 543.149 352.681C543.325 351.274 543.509 349.857 543.685 348.432C548.161 313.004 553.059 272.913 553.059 272.913L573.635 275.412L613.555 280.251L629.823 282.221L673.384 287.509C695.103 290.139 710.043 310.638 705.91 332.139Z" fill="#F2F2F2"/>
<path d="M927.4 388.901H842.511C843.804 387.379 844.534 386.499 844.534 386.499L869.981 382.294L922.415 373.637C922.415 373.637 924.806 379.822 927.4 388.901Z" fill="#2F2E41"/>
<path d="M567.325 116.285L604.241 168.52L539.846 170.445L532.934 121.356L567.325 116.285Z" fill="#A0616A"/>
<path opacity="0.1" d="M567.325 116.285L604.241 168.52L539.846 170.445L532.934 121.356L567.325 116.285Z" fill="black"/>
<path d="M385.267 224.513C380.53 210.841 369.64 202.205 360.944 205.222C352.248 208.24 349.041 221.767 353.782 235.443C355.6 240.932 358.706 245.905 362.84 249.946L383.641 307.62L410.484 297.276L387.128 241.519C387.874 235.783 387.236 229.951 385.267 224.513Z" fill="#A0616A"/>
<path d="M635.158 197.896L635.107 251.13L630.157 270.793L619.974 311.236L612.562 348.432L607.04 376.145L605.07 386.042C603.584 387.036 602.107 387.986 600.629 388.901H472.012C464.705 384.511 460.616 381.098 460.616 381.098C460.616 381.098 462.639 379.197 464.951 376.145C468.855 370.989 473.577 362.544 470.684 354.476C470.078 352.787 469.919 350.728 470.104 348.432C471.282 333.283 487.163 307.664 487.163 307.664L483.874 269.641L482.432 252.978L492.6 171.732L525.741 152.456L531.463 151.902L587.941 148.85L611.285 150.196L612.349 150.486L635.158 197.896Z" fill="#CCCCCC"/>
<path d="M637.666 388.901H609.528L608.288 376.144L608.262 375.889L616.229 375.344L636.954 373.927L637.314 381.564L637.596 387.423L637.666 388.901Z" fill="#FFB6B6"/>
<path d="M644.593 210.767L656.413 280.154L646.767 348.432L645.264 359.06L642.608 377.825L641.79 383.596L641.817 384.221L642.019 388.901H608.605L607.374 376.145L607.268 375.001L604.753 348.872L604.71 348.432L599.372 293.025L609.836 252.978L610.61 250.031V250.022L615.162 181.453L611.636 150.292L611.601 150.002C611.672 150.046 611.733 150.09 611.804 150.134C611.988 150.248 612.173 150.363 612.349 150.486C632.889 163.524 645.13 186.398 644.593 210.767Z" fill="#CCCCCC"/>
<path d="M504.57 185.028L491.721 171.731C491.721 171.731 464.214 184.138 462.843 191.021C461.472 197.904 412.906 299 412.906 299L391.777 242.538L364.273 260.91C364.273 260.91 386.342 348.57 406.981 352.685C427.62 356.801 496.793 248.931 496.793 248.931L504.57 185.028Z" fill="#CCCCCC"/>
<path d="M1026.31 347.822H25.6809C11.5178 347.822 0 359.358 0 373.528C0 387.698 11.5178 399.222 25.6809 399.222H1026.31C1040.47 399.222 1052 387.699 1052 373.528C1052 359.357 1040.47 347.822 1026.31 347.822Z" fill="#E6E6E6"/>
<path d="M629.302 269.493L627.357 360.323C627.168 369.115 619.99 376.145 611.2 376.145H444.199C435.617 376.145 428.532 369.433 428.063 360.859L423.1 270.029C422.594 260.766 429.965 252.978 439.236 252.978H613.146C622.206 252.978 629.496 260.43 629.302 269.493Z" fill="#3F3D56"/>
<path d="M359.706 120.614C381.773 120.614 399.661 102.717 399.661 80.6385C399.661 58.5606 381.773 40.6628 359.706 40.6628C337.639 40.6628 319.751 58.5606 319.751 80.6385C319.751 102.717 337.639 120.614 359.706 120.614Z" fill="#FFB6B6"/>
<path d="M292.878 185.237L297.275 232.744L327.172 353.271L301.343 362.328L257.706 230.984L251.679 178.198L292.878 185.237Z" fill="#FFB6B6"/>
<path d="M280.986 269.493L279.04 360.323C278.852 369.115 271.674 376.145 262.884 376.145H95.8832C87.3009 376.145 80.2156 369.433 79.7471 360.859L74.7841 270.029C74.278 260.766 81.6486 252.978 90.9202 252.978H264.829C273.89 252.978 281.18 260.43 280.986 269.493Z" fill="#3F3D56"/>
<path d="M331.932 376.759C349.359 376.759 363.487 370.507 363.487 362.795C363.487 355.082 349.359 348.831 331.932 348.831C314.505 348.831 300.377 355.082 300.377 362.795C300.377 370.507 314.505 376.759 331.932 376.759Z" fill="#FFB6B6"/>
<path d="M230.887 192.5L248.913 96.3807C248.913 96.3807 299.034 89.3426 300.792 106.058C302.551 122.774 299.535 204.464 299.535 204.464L230.887 192.5Z" fill="#D1D4C9"/>
<path d="M343.577 86.9241C343.577 86.9241 368.294 78.0984 378.719 73.3497C389.145 68.6011 409.858 101.723 410.319 84.23C410.78 66.7374 403.622 59.4018 403.622 59.4018C403.622 59.4018 401.835 21.1343 363.301 25.9186C363.301 25.9186 371.777 6.77295 343.955 3.81243C316.132 0.851898 272.848 68.0723 276.724 78.1181C280.601 88.1638 285.248 96.469 274.25 107.21C263.252 117.951 242.658 178.571 258.327 194.884C273.996 211.196 275.024 218.275 264.288 228.423C253.553 238.571 228.177 260.638 255.614 264.469C283.051 268.299 253.104 265.438 273.559 247.437C294.013 229.436 323.861 230.171 312.716 201.29C301.572 172.408 320.934 131.021 318.511 124.743C316.089 118.464 323.939 78.5946 323.939 78.5946C323.939 78.5946 342.211 75.9088 343.577 86.9241Z" fill="#2F2E41"/>
<path d="M547.586 135.192C571.607 135.192 591.08 115.709 591.08 91.6754C591.08 67.6419 571.607 48.1589 547.586 48.1589C523.565 48.1589 504.092 67.6419 504.092 91.6754C504.092 115.709 523.565 135.192 547.586 135.192Z" fill="#A0616A"/>
<path d="M551.057 33.1705C549.799 33.9055 548.113 32.7934 547.709 31.3924C547.306 29.9914 547.776 28.5039 548.242 27.1225L550.589 20.1682C552.253 15.2361 554.019 10.1316 557.624 6.37766C563.065 0.711622 571.711 -0.729791 579.494 0.314462C589.49 1.65549 599.352 7.07067 604 16.0254C608.647 24.9801 606.668 37.4751 598.271 43.062C610.239 56.7872 614.412 72.0835 613.753 90.2865C613.094 108.489 593.267 125.242 580.338 138.065C577.45 136.314 574.825 128.107 576.413 125.126C578.001 122.144 575.726 118.69 577.692 115.944C579.659 113.198 581.304 117.571 579.316 114.84C578.062 113.117 582.958 109.153 581.093 108.122C572.074 103.134 569.074 91.8859 563.409 83.2725C556.577 72.8831 544.882 65.8473 532.507 64.6801C525.69 64.0371 518.489 65.2017 512.901 69.1615C507.313 73.1213 503.696 80.1973 504.992 86.9245C501.636 83.5154 499.965 78.5193 500.595 73.7762C501.225 69.033 504.142 64.6469 508.271 62.2331C505.761 53.9258 507.912 44.37 513.739 37.9416C519.567 31.5131 543.207 32.608 551.715 34.2999L551.057 33.1705Z" fill="#2F2E41"/>
<path d="M552.378 64.9324C563.647 66.1494 571.783 75.9154 578.653 84.9343C582.613 90.1326 586.761 95.8733 586.662 102.408C586.561 109.016 582.146 114.683 580.036 120.945C576.587 131.18 579.948 143.357 588.159 150.37C580.046 151.91 571.276 145.824 569.875 137.682C568.245 128.203 575.426 119.055 574.576 109.475C573.826 101.034 567.178 94.5385 561.527 88.2278C555.875 81.917 550.567 73.5428 553.167 65.4785L552.378 64.9324Z" fill="#2F2E41"/>
<path d="M720.842 353.322C709.68 359.674 703.908 370.585 707.95 377.691C711.991 384.797 724.313 385.407 735.478 379.052C739.973 376.574 743.809 373.056 746.666 368.791L793.619 341.281L780.246 319.511L735.379 348.943C730.253 349.22 725.268 350.722 720.842 353.322Z" fill="#FFB6B6"/>
<path d="M879.814 151.589C878.41 151.033 866.099 146.368 854.859 152.527C841.948 159.602 839.954 175.751 839.255 181.416C837.639 194.501 842.399 197.434 843.404 210.68C845.284 235.464 850.241 207.191 842.324 218.503C839.584 222.419 811.598 283.1 796.164 294.985C766.146 318.102 747.085 334.381 747.085 334.381L768.846 358.032C768.846 358.032 803.233 348.865 833.626 329.12C864.802 308.866 880.391 298.739 892.451 278.928C893.489 277.222 918.339 235.001 904.993 188.315C901.949 177.666 896.372 158.154 879.814 151.589Z" fill="#D1D4C9"/>
<path d="M992.182 269.493L990.237 360.323C990.048 369.115 982.87 376.145 974.08 376.145H807.079C798.497 376.145 791.412 369.433 790.943 360.859L785.98 270.029C785.474 260.766 792.845 252.978 802.116 252.978H976.025C985.086 252.978 992.376 260.43 992.182 269.493Z" fill="#3F3D56"/>
</g>
<defs>
<clipPath id="clip0_6_9271">
<rect width="1052" height="538" fill="white"/>
</clipPath>
</defs>
</svg>
